<svg width="24.000000" height="23.295898" viewBox="0 0 24 23.2959" fill="none" xmlns="http://www.w3.org/2000/svg" xmlns:xlink="http://www.w3.org/1999/xlink">
	<desc>
			Created with Pixso.
	</desc>
	<defs/>
	<path id="Vector" d="M12.04 23.29C4.22 23.29 0 18.41 0 12.12C0 5.39 4.76 0 13.27 0C19.49 0 24 4.03 24 9.6C24 18.31 13.66 20.61 14.18 15.64C13.47 16.75 12.33 17.99 10.13 17.99C7.61 17.99 6.05 16.15 6.05 13.18C6.05 8.74 8.97 4.99 12.43 4.99C14.09 4.99 15.23 5.86 15.71 7.21L16.17 5.58L18.51 5.58C18.26 6.41 16.19 14.1 16.19 14.1C15.54 16.77 17.54 16.82 19.31 15.4C22.64 12.82 22.81 6.07 18.31 3.26C13.49 0.37 2.52 2.16 2.52 11.95C2.52 17.56 6.47 21.33 12.35 21.33C15.78 21.33 17.89 20.4 19.64 19.38L20.82 21.08C19.11 22.05 16.36 23.29 12.04 23.29ZM9.69 8.99C8.98 10.33 8.52 12.06 8.52 13.41C8.52 17.02 12.04 17.04 13.77 13.65C14.48 12.26 14.94 10.48 14.94 9.12C14.94 6.2 11.44 5.69 9.69 8.99Z" fill="#574E56" fill-opacity="1.000000" fill-rule="nonzero"/>
</svg>
