<svg width="22.000000" height="33.000000" viewBox="0 0 22 33" fill="none" xmlns="http://www.w3.org/2000/svg" xmlns:xlink="http://www.w3.org/1999/xlink">
	<desc>
			Created with Pixso.
	</desc>
	<defs/>
	<path id="Vector" d="M11 2.75C15.39 2.75 19.25 6.34 19.25 10.45C19.25 14.7 15.82 20.25 11 27.86C6.17 20.25 2.75 14.7 2.75 10.45C2.75 6.34 6.6 2.75 11 2.75ZM11 0C5.22 0 0 4.67 0 10.45C0 16.22 4.76 23.11 11 33C17.23 23.11 22 16.22 22 10.45C22 4.67 16.77 0 11 0L11 0ZM11 15.12C8.72 15.12 6.87 13.27 6.87 11C6.87 8.72 8.72 6.87 11 6.87C13.27 6.87 15.12 8.72 15.12 11C15.12 13.27 13.27 15.12 11 15.12Z" fill="#000000" fill-opacity="1.000000" fill-rule="nonzero"/>
</svg>
