<svg width="16.829102" height="24.000000" viewBox="0 0 16.8291 24" fill="none" xmlns="http://www.w3.org/2000/svg" xmlns:xlink="http://www.w3.org/1999/xlink">
	<desc>
			Created with Pixso.
	</desc>
	<defs/>
	<path id="Vector" d="M2.59 1.32L5.43 0L9.47 7.88L6.75 9.23C6.21 10.49 8.91 15.52 10.04 15.6C10.13 15.54 12.71 14.27 12.71 14.27L16.82 22.2C16.82 22.2 14.06 23.56 13.97 23.6C6.11 27.19 -5.13 5.34 2.59 1.32ZM4.51 2.59L3.49 3.1C-1.8 5.86 7.67 24.28 13.14 21.78L14.11 21.31L11.84 16.92L10.81 17.42C7.65 18.97 2.55 9.2 5.76 7.49L6.77 6.99L4.51 2.59Z" fill="#000000" fill-opacity="1.000000" fill-rule="nonzero"/>
</svg>
